<svg width="24" height="22" viewBox="0 0 24 22" fill="none" xmlns="http://www.w3.org/2000/svg">
<path d="M1.68742 0.251183C1.56319 0.249426 1.43985 0.272377 1.32457 0.318702C1.20929 0.365028 1.10436 0.433804 1.01589 0.521033C0.92742 0.608262 0.857167 0.712205 0.809216 0.826821C0.761265 0.941437 0.736572 1.06444 0.736572 1.18868C0.736572 1.31292 0.761265 1.43593 0.809216 1.55054C0.857167 1.66516 0.92742 1.7691 1.01589 1.85633C1.10436 1.94356 1.20929 2.01234 1.32457 2.05866C1.43985 2.10499 1.56319 2.12794 1.68742 2.12618H22.3124C22.4367 2.12794 22.56 2.10499 22.6753 2.05866C22.7906 2.01234 22.8955 1.94356 22.984 1.85633C23.0724 1.7691 23.1427 1.66516 23.1906 1.55054C23.2386 1.43593 23.2633 1.31292 23.2633 1.18868C23.2633 1.06444 23.2386 0.941437 23.1906 0.826821C23.1427 0.712205 23.0724 0.608262 22.984 0.521033C22.8955 0.433804 22.7906 0.365028 22.6753 0.318702C22.56 0.272377 22.4367 0.249426 22.3124 0.251183H1.68742ZM1.68742 10.2512C1.56319 10.2494 1.43985 10.2724 1.32457 10.3187C1.20929 10.365 1.10436 10.4338 1.01589 10.521C0.92742 10.6083 0.857167 10.7122 0.809216 10.8268C0.761265 10.9414 0.736572 11.0644 0.736572 11.1887C0.736572 11.3129 0.761265 11.4359 0.809216 11.5505C0.857167 11.6652 0.92742 11.7691 1.01589 11.8563C1.10436 11.9436 1.20929 12.0123 1.32457 12.0587C1.43985 12.105 1.56319 12.1279 1.68742 12.1262H22.3124C22.4367 12.1279 22.56 12.105 22.6753 12.0587C22.7906 12.0123 22.8955 11.9436 22.984 11.8563C23.0724 11.7691 23.1427 11.6652 23.1906 11.5505C23.2386 11.4359 23.2633 11.3129 23.2633 11.1887C23.2633 11.0644 23.2386 10.9414 23.1906 10.8268C23.1427 10.7122 23.0724 10.6083 22.984 10.521C22.8955 10.4338 22.7906 10.365 22.6753 10.3187C22.56 10.2724 22.4367 10.2494 22.3124 10.2512H1.68742ZM1.68742 19.6262C1.56319 19.6244 1.43985 19.6474 1.32457 19.6937C1.20929 19.74 1.10436 19.8088 1.01589 19.896C0.92742 19.9833 0.857167 20.0872 0.809216 20.2018C0.761265 20.3164 0.736572 20.4394 0.736572 20.5637C0.736572 20.6879 0.761265 20.8109 0.809216 20.9255C0.857167 21.0402 0.92742 21.1441 1.01589 21.2313C1.10436 21.3186 1.20929 21.3873 1.32457 21.4337C1.43985 21.48 1.56319 21.5029 1.68742 21.5012H22.3124C22.4367 21.5029 22.56 21.48 22.6753 21.4337C22.7906 21.3873 22.8955 21.3186 22.984 21.2313C23.0724 21.1441 23.1427 21.0402 23.1906 20.9255C23.2386 20.8109 23.2633 20.6879 23.2633 20.5637C23.2633 20.4394 23.2386 20.3164 23.1906 20.2018C23.1427 20.0872 23.0724 19.9833 22.984 19.896C22.8955 19.8088 22.7906 19.74 22.6753 19.6937C22.56 19.6474 22.4367 19.6244 22.3124 19.6262H1.68742Z" fill="#000000"/>
</svg>
