<svg width="1440" height="832" viewBox="0 0 1440 832" fill="none" xmlns="http://www.w3.org/2000/svg">
<g opacity="0.2">
<g clip-path="url(#clip0_60_181)">
<path d="M72.465 171.195C80.3503 161.615 76.9056 135.995 67.6741 128.397C63.5164 124.974 58.3703 126.164 53.9089 131.585C49.0592 137.477 48.8446 143.827 44.9551 148.552C41.0319 153.319 34.8327 154.761 30.0257 160.601C25.5642 166.021 25.386 171.3 29.5437 174.722C38.7752 182.321 64.5798 180.775 72.465 171.195ZM88.5919 154.664C93.7525 156.807 99.6073 155.142 101.67 150.947C103.732 146.751 101.22 141.614 96.0596 139.471C90.899 137.328 85.0441 138.992 82.9817 143.188C80.9193 147.383 83.4313 152.521 88.5919 154.664ZM82.6549 166.922C80.5524 171.453 83.9949 177.419 90.3433 180.249C96.6917 183.078 103.541 181.697 105.644 177.167C107.746 172.636 104.304 166.67 97.9555 163.84C91.6071 161.011 84.7553 162.392 82.6549 166.922ZM58.2088 203.746C61.9295 200.915 62.4367 194.851 59.3425 190.197C56.2472 185.545 50.7226 184.068 47.0019 186.898C43.2811 189.729 42.7739 195.793 45.8682 200.447C48.9634 205.099 54.488 206.577 58.2088 203.746ZM70.2307 182.017C66.1887 184.951 66.151 191.938 70.1481 197.624C74.1451 203.31 80.6607 205.541 84.7039 202.607C88.7471 199.674 88.7836 192.686 84.7866 187C80.7896 181.314 74.2728 179.082 70.2307 182.017Z" fill="#222629"/>
</g>
<g clip-path="url(#clip1_60_181)">
<path d="M101.555 52.5418C109.44 42.9618 105.995 17.3415 96.7637 9.74311C92.606 6.32093 87.4599 7.51079 82.9985 12.9311C78.1487 18.8232 77.9342 25.1731 74.0447 29.8985C70.1214 34.665 63.9223 36.1072 59.1153 41.9474C54.6538 47.3677 54.4755 52.6466 58.6332 56.0688C67.8648 63.6672 93.6693 62.1218 101.555 52.5418ZM117.681 36.0105C122.842 38.1535 128.697 36.4886 130.759 32.2931C132.822 28.0976 130.31 22.96 125.149 20.817C119.989 18.674 114.134 20.3389 112.071 24.5344C110.009 28.7299 112.521 33.8675 117.681 36.0105ZM111.744 48.2687C109.642 52.7995 113.085 58.7658 119.433 61.595C125.781 64.4243 132.631 63.044 134.733 58.5132C136.836 53.9824 133.393 48.0161 127.045 45.1869C120.697 42.3576 113.845 43.7382 111.744 48.2687ZM87.2983 85.0925C91.019 82.262 91.5262 76.1975 88.432 71.544C85.3368 66.8916 79.8121 65.4143 76.0914 68.2448C72.3707 71.0754 71.8635 77.1399 74.9577 81.7934C78.0529 86.4457 83.5776 87.9231 87.2983 85.0925ZM99.3203 63.3632C95.2783 66.2976 95.2406 73.2848 99.2376 78.9708C103.235 84.6568 109.75 86.8871 113.793 83.9537C117.837 81.0203 117.873 74.032 113.876 68.346C109.879 62.66 103.362 60.4288 99.3203 63.3632Z" fill="#222629"/>
</g>
</g>
<g opacity="0.2">
<g clip-path="url(#clip2_60_181)">
<path d="M639.732 42.1274C651.565 45.8598 674.041 33.0876 677.637 21.6849C679.257 16.5493 676.23 12.2211 669.535 10.1093C662.257 7.81376 656.287 9.98849 650.45 8.14744C644.563 6.2904 640.908 1.07983 633.694 -1.19552C626.999 -3.30731 622.036 -1.49933 620.416 3.63621C616.82 15.0389 627.899 38.395 639.732 42.1274ZM661.094 50.9054C661.035 56.493 664.768 61.301 669.43 61.6455C674.093 61.99 677.919 57.7396 677.977 52.1521C678.036 46.5645 674.303 41.7565 669.641 41.412C664.978 41.0674 661.152 45.3178 661.094 50.9054ZM647.505 49.9812C642.517 49.7248 638.27 55.1481 638.019 62.0938C637.768 69.0396 641.609 74.8767 646.597 75.1331C651.585 75.3895 655.832 69.9662 656.083 63.0204C656.334 56.0747 652.492 50.2357 647.505 49.9812ZM604.212 41.0728C608.228 43.4656 614.043 41.669 617.202 37.0596C620.36 32.4496 619.665 26.7732 615.649 24.3804C611.633 21.9875 605.819 23.7841 602.659 28.3936C599.501 33.0035 600.196 38.6799 604.212 41.0728ZM628.86 44.1003C624.628 41.4483 618.133 44.0253 614.353 49.8581C610.574 55.6909 610.941 62.5679 615.173 65.2214C619.405 67.8749 625.9 65.2964 629.68 59.4636C633.46 53.6308 633.093 46.7524 628.86 44.1003Z" fill="#222629"/>
</g>
<g clip-path="url(#clip3_60_181)">
<path d="M760.658 24.7531C772.491 28.4855 794.966 15.7132 798.563 4.31054C800.183 -0.82501 797.155 -5.15322 790.46 -7.265C783.182 -9.56057 777.213 -7.38584 771.376 -9.22689C765.488 -11.0839 761.833 -16.2945 754.62 -18.5699C747.924 -20.6816 742.962 -18.8737 741.342 -13.7381C737.745 -2.33543 748.825 21.0207 760.658 24.7531ZM782.019 33.5311C781.961 39.1186 785.694 43.9266 790.356 44.2712C795.018 44.6157 798.844 40.3653 798.903 34.7777C798.961 29.1901 795.228 24.3822 790.566 24.0376C785.904 23.6931 782.078 27.9435 782.019 33.5311ZM768.43 32.6069C763.442 32.3504 759.195 37.7737 758.944 44.7195C758.693 51.6653 762.534 57.5023 767.522 57.7588C772.511 58.0152 776.757 52.5919 777.008 45.6461C777.259 38.7003 773.418 32.8613 768.43 32.6069ZM725.138 23.6984C729.154 26.0913 734.968 24.2947 738.128 19.6852C741.286 15.0753 740.591 9.39889 736.575 7.00604C732.558 4.61318 726.744 6.40977 723.585 11.0192C720.427 15.6292 721.122 21.3056 725.138 23.6984ZM749.786 26.726C745.553 24.074 739.058 26.651 735.279 32.4838C731.499 38.3165 731.866 45.1935 736.098 47.847C740.331 50.5005 746.826 47.9221 750.606 42.0893C754.385 36.2565 754.019 29.378 749.786 26.726Z" fill="#222629"/>
</g>
</g>
<g opacity="0.2">
<g clip-path="url(#clip4_60_181)">
<path d="M179.989 742.035C188.755 750.817 214.589 749.886 223.051 741.439C226.862 737.635 226.18 732.397 221.22 727.429C215.829 722.028 209.53 721.195 205.206 716.864C200.845 712.494 200.014 706.184 194.67 700.831C189.711 695.862 184.474 695.17 180.663 698.974C172.201 707.421 171.224 733.254 179.989 742.035ZM194.87 759.697C192.234 764.624 193.32 770.613 197.295 773.075C201.269 775.536 206.627 773.537 209.263 768.61C211.899 763.683 210.813 757.694 206.838 755.232C202.864 752.771 197.506 754.77 194.87 759.697ZM183.249 752.593C178.944 750.059 172.671 752.903 169.236 758.946C165.802 764.988 166.508 771.94 170.812 774.474C175.116 777.008 181.39 774.164 184.824 768.121C188.259 762.079 187.553 755.125 183.249 752.593ZM148.983 724.674C151.438 728.653 157.424 729.749 162.357 727.123C167.289 724.496 169.298 719.141 166.843 715.163C164.389 711.184 158.403 710.088 153.47 712.713C148.538 715.34 146.529 720.695 148.983 724.674ZM169.437 738.757C166.911 734.448 159.961 733.729 153.912 737.153C147.863 740.577 145.009 746.844 147.534 751.154C150.059 755.464 157.011 756.181 163.059 752.757C169.108 749.334 171.964 743.065 169.437 738.757Z" fill="#222629"/>
</g>
<g clip-path="url(#clip5_60_181)">
<path d="M295.242 782.553C304.008 791.335 329.842 790.404 338.304 781.957C342.115 778.153 341.432 772.915 336.473 767.947C331.082 762.546 324.783 761.713 320.459 757.382C316.098 753.012 315.267 746.702 309.923 741.349C304.963 736.38 299.727 735.688 295.916 739.492C287.454 747.939 286.476 773.772 295.242 782.553ZM310.122 800.215C307.486 805.142 308.573 811.131 312.547 813.593C316.522 816.054 321.88 814.055 324.515 809.128C327.151 804.201 326.065 798.212 322.091 795.75C318.116 793.288 312.758 795.288 310.122 800.215ZM298.501 793.111C294.197 790.577 287.924 793.421 284.489 799.464C281.054 805.506 281.76 812.458 286.065 814.992C290.369 817.526 296.642 814.682 300.077 808.639C303.512 802.597 302.805 795.643 298.501 793.111ZM264.236 765.192C266.69 769.171 272.676 770.266 277.609 767.641C282.541 765.014 284.55 759.659 282.096 755.68C279.642 751.702 273.655 750.606 268.722 753.231C263.79 755.858 261.782 761.213 264.236 765.192ZM284.69 779.275C282.163 774.966 275.213 774.247 269.165 777.671C263.116 781.094 260.261 787.362 262.787 791.672C265.312 795.981 272.263 796.699 278.312 793.275C284.36 789.852 287.216 783.583 284.69 779.275Z" fill="#222629"/>
</g>
</g>
<g opacity="0.2">
<g clip-path="url(#clip6_60_181)">
<path d="M1378.58 685.99C1369.8 694.755 1370.73 720.589 1379.17 729.052C1382.98 732.863 1388.22 732.18 1393.18 727.221C1398.58 721.829 1399.42 715.531 1403.75 711.207C1408.12 706.846 1414.43 706.015 1419.78 700.671C1424.75 695.711 1425.44 690.475 1421.64 686.664C1413.19 678.202 1387.36 677.224 1378.58 685.99ZM1360.92 700.87C1355.99 698.234 1350 699.32 1347.54 703.295C1345.08 707.269 1347.08 712.627 1352 715.263C1356.93 717.899 1362.92 716.813 1365.38 712.838C1367.84 708.864 1365.84 703.506 1360.92 700.87ZM1368.02 689.249C1370.55 684.945 1367.71 678.671 1361.67 675.237C1355.62 671.802 1348.67 672.508 1346.14 676.812C1343.6 681.116 1346.45 687.39 1352.49 690.825C1358.53 694.259 1365.49 693.553 1368.02 689.249ZM1395.94 654.984C1391.96 657.438 1390.86 663.424 1393.49 668.357C1396.12 673.289 1401.47 675.298 1405.45 672.844C1409.43 670.389 1410.53 664.403 1407.9 659.47C1405.27 654.538 1399.92 652.529 1395.94 654.984ZM1381.86 675.438C1386.17 672.911 1386.88 665.961 1383.46 659.912C1380.04 653.864 1373.77 651.009 1369.46 653.534C1365.15 656.06 1364.43 663.011 1367.86 669.059C1371.28 675.108 1377.55 677.964 1381.86 675.438Z" fill="#222629"/>
</g>
<g clip-path="url(#clip7_60_181)">
<path d="M1338.06 801.242C1329.28 810.008 1330.21 835.842 1338.65 844.304C1342.46 848.115 1347.7 847.433 1352.67 842.473C1358.07 837.082 1358.9 830.783 1363.23 826.459C1367.6 822.098 1373.91 821.267 1379.26 815.923C1384.23 810.964 1384.92 805.728 1381.12 801.916C1372.67 793.454 1346.84 792.476 1338.06 801.242ZM1320.4 816.122C1315.47 813.487 1309.48 814.573 1307.02 818.547C1304.56 822.522 1306.56 827.88 1311.48 830.516C1316.41 833.151 1322.4 832.065 1324.86 828.091C1327.32 824.116 1325.32 818.758 1320.4 816.122ZM1327.5 804.501C1330.04 800.197 1327.19 793.924 1321.15 790.489C1315.11 787.054 1308.15 787.76 1305.62 792.065C1303.09 796.369 1305.93 802.642 1311.97 806.077C1318.02 809.512 1324.97 808.806 1327.5 804.501ZM1355.42 770.236C1351.44 772.691 1350.35 778.677 1352.97 783.61C1355.6 788.542 1360.95 790.551 1364.93 788.096C1368.91 785.642 1370.01 779.656 1367.38 774.723C1364.75 769.791 1359.4 767.782 1355.42 770.236ZM1341.34 790.69C1345.65 788.164 1346.37 781.213 1342.94 775.165C1339.52 769.116 1333.25 766.261 1328.94 768.787C1324.63 771.312 1323.91 778.263 1327.34 784.312C1330.76 790.361 1337.03 793.216 1341.34 790.69Z" fill="#222629"/>
</g>
</g>
<defs>
<clipPath id="clip0_60_181">
<rect width="80" height="79" fill="white" transform="translate(124.571 162.276) rotate(129.458)"/>
</clipPath>
<clipPath id="clip1_60_181">
<rect width="80" height="79" fill="white" transform="translate(153.66 43.6228) rotate(129.458)"/>
</clipPath>
<clipPath id="clip2_60_181">
<rect width="80" height="79" fill="white" transform="translate(667.483 87.1215) rotate(-162.494)"/>
</clipPath>
<clipPath id="clip3_60_181">
<rect width="80" height="79" fill="white" transform="translate(788.408 69.7472) rotate(-162.494)"/>
</clipPath>
<clipPath id="clip4_60_181">
<rect width="80" height="79" fill="white" transform="translate(183.786 794.762) rotate(-134.948)"/>
</clipPath>
<clipPath id="clip5_60_181">
<rect width="80" height="79" fill="white" transform="translate(299.039 835.28) rotate(-134.948)"/>
</clipPath>
<clipPath id="clip6_60_181">
<rect width="80" height="79" fill="white" transform="translate(1325.85 689.786) rotate(-44.9477)"/>
</clipPath>
<clipPath id="clip7_60_181">
<rect width="80" height="79" fill="white" transform="translate(1285.33 805.039) rotate(-44.9477)"/>
</clipPath>
</defs>
</svg>
